<svg xmlns="http://www.w3.org/2000/svg" width="32" height="32" viewBox="0 0 32 32" shape-rendering="crispEdges">
<rect x="1" y="1" width="30" height="30" rx="4" ry="4" fill="#ffffff" stroke="#e5e5e5" stroke-width="1"/>
<rect x="10" y="2" width="4" height="28" fill="#1a1a1a"/>
<rect x="14" y="2" width="1" height="4" fill="#4c4c4c"/>
<rect x="18" y="2" width="1" height="4" fill="#4c4c4c"/>
<rect x="15" y="2" width="1" height="4" fill="#4c4c4c"/>
<rect x="19" y="2" width="1" height="4" fill="#4c4c4c"/>
<rect x="16" y="2" width="1" height="4" fill="#7e7e7e"/>
<rect x="20" y="2" width="1" height="4" fill="#7e7e7e"/>
<rect x="17" y="2" width="1" height="4" fill="#7e7e7e"/>
<rect x="21" y="2" width="1" height="4" fill="#7e7e7e"/>
<rect x="14" y="6" width="1" height="8" fill="#4c4c4c"/>
<rect x="15" y="6" width="1" height="8" fill="#4c4c4c"/>
<rect x="16" y="6" width="1" height="8" fill="#7e7e7e"/>
<rect x="17" y="6" width="1" height="8" fill="#7e7e7e"/>
<rect x="18" y="6" width="1" height="8" fill="#7e7e7e"/>
<rect x="19" y="6" width="1" height="8" fill="#7e7e7e"/>
<rect x="20" y="6" width="1" height="8" fill="#7e7e7e"/>
<rect x="21" y="6" width="1" height="8" fill="#7e7e7e"/>
<rect x="14" y="14" width="1" height="4" fill="#4c4c4c"/>
<rect x="18" y="14" width="1" height="4" fill="#7e7e7e"/>
<rect x="15" y="14" width="1" height="4" fill="#4c4c4c"/>
<rect x="19" y="14" width="1" height="4" fill="#7e7e7e"/>
<rect x="16" y="14" width="1" height="4" fill="#7e7e7e"/>
<rect x="20" y="14" width="1" height="4" fill="#7e7e7e"/>
<rect x="17" y="14" width="1" height="4" fill="#7e7e7e"/>
<rect x="21" y="14" width="1" height="4" fill="#7e7e7e"/>
</svg>