<svg xmlns="http://www.w3.org/2000/svg" width="32" height="32" viewBox="0 0 32 32" shape-rendering="crispEdges">
<rect x="10" y="2" width="1" height="1" fill="#1a1a1a"/>
<rect x="11" y="2" width="1" height="1" fill="#1a1a1a"/>
<rect x="12" y="2" width="1" height="1" fill="#1a1a1a"/>
<rect x="13" y="2" width="1" height="1" fill="#1a1a1a"/>
<rect x="14" y="2" width="1" height="1" fill="#4c4c4c"/>
<rect x="15" y="2" width="1" height="1" fill="#4c4c4c"/>
<rect x="16" y="2" width="1" height="1" fill="#4c4c4c"/>
<rect x="17" y="2" width="1" height="1" fill="#4c4c4c"/>
<rect x="18" y="2" width="1" height="1" fill="#7e7e7e"/>
<rect x="19" y="2" width="1" height="1" fill="#7e7e7e"/>
<rect x="20" y="2" width="1" height="1" fill="#7e7e7e"/>
<rect x="21" y="2" width="1" height="1" fill="#7e7e7e"/>
<rect x="10" y="3" width="1" height="1" fill="#1a1a1a"/>
<rect x="11" y="3" width="1" height="1" fill="#1a1a1a"/>
<rect x="12" y="3" width="1" height="1" fill="#1a1a1a"/>
<rect x="13" y="3" width="1" height="1" fill="#1a1a1a"/>
<rect x="14" y="3" width="1" height="1" fill="#4c4c4c"/>
<rect x="15" y="3" width="1" height="1" fill="#4c4c4c"/>
<rect x="16" y="3" width="1" height="1" fill="#4c4c4c"/>
<rect x="17" y="3" width="1" height="1" fill="#4c4c4c"/>
<rect x="18" y="3" width="1" height="1" fill="#7e7e7e"/>
<rect x="19" y="3" width="1" height="1" fill="#7e7e7e"/>
<rect x="20" y="3" width="1" height="1" fill="#7e7e7e"/>
<rect x="21" y="3" width="1" height="1" fill="#7e7e7e"/>
<rect x="10" y="4" width="1" height="1" fill="#1a1a1a"/>
<rect x="11" y="4" width="1" height="1" fill="#1a1a1a"/>
<rect x="12" y="4" width="1" height="1" fill="#1a1a1a"/>
<rect x="13" y="4" width="1" height="1" fill="#1a1a1a"/>
<rect x="14" y="4" width="1" height="1" fill="#4c4c4c"/>
<rect x="15" y="4" width="1" height="1" fill="#4c4c4c"/>
<rect x="16" y="4" width="1" height="1" fill="#4c4c4c"/>
<rect x="17" y="4" width="1" height="1" fill="#4c4c4c"/>
<rect x="18" y="4" width="1" height="1" fill="#7e7e7e"/>
<rect x="19" y="4" width="1" height="1" fill="#7e7e7e"/>
<rect x="20" y="4" width="1" height="1" fill="#7e7e7e"/>
<rect x="21" y="4" width="1" height="1" fill="#7e7e7e"/>
<rect x="10" y="5" width="1" height="1" fill="#1a1a1a"/>
<rect x="11" y="5" width="1" height="1" fill="#1a1a1a"/>
<rect x="12" y="5" width="1" height="1" fill="#1a1a1a"/>
<rect x="13" y="5" width="1" height="1" fill="#1a1a1a"/>
<rect x="14" y="5" width="1" height="1" fill="#4c4c4c"/>
<rect x="15" y="5" width="1" height="1" fill="#4c4c4c"/>
<rect x="16" y="5" width="1" height="1" fill="#4c4c4c"/>
<rect x="17" y="5" width="1" height="1" fill="#4c4c4c"/>
<rect x="18" y="5" width="1" height="1" fill="#7e7e7e"/>
<rect x="19" y="5" width="1" height="1" fill="#7e7e7e"/>
<rect x="20" y="5" width="1" height="1" fill="#7e7e7e"/>
<rect x="21" y="5" width="1" height="1" fill="#7e7e7e"/>
<rect x="10" y="6" width="1" height="1" fill="#1a1a1a"/>
<rect x="11" y="6" width="1" height="1" fill="#1a1a1a"/>
<rect x="12" y="6" width="1" height="1" fill="#1a1a1a"/>
<rect x="13" y="6" width="1" height="1" fill="#1a1a1a"/>
<rect x="18" y="6" width="1" height="1" fill="#7e7e7e"/>
<rect x="19" y="6" width="1" height="1" fill="#7e7e7e"/>
<rect x="20" y="6" width="1" height="1" fill="#7e7e7e"/>
<rect x="21" y="6" width="1" height="1" fill="#7e7e7e"/>
<rect x="10" y="7" width="1" height="1" fill="#1a1a1a"/>
<rect x="11" y="7" width="1" height="1" fill="#1a1a1a"/>
<rect x="12" y="7" width="1" height="1" fill="#1a1a1a"/>
<rect x="13" y="7" width="1" height="1" fill="#1a1a1a"/>
<rect x="18" y="7" width="1" height="1" fill="#7e7e7e"/>
<rect x="19" y="7" width="1" height="1" fill="#7e7e7e"/>
<rect x="20" y="7" width="1" height="1" fill="#7e7e7e"/>
<rect x="21" y="7" width="1" height="1" fill="#7e7e7e"/>
<rect x="10" y="8" width="1" height="1" fill="#1a1a1a"/>
<rect x="11" y="8" width="1" height="1" fill="#1a1a1a"/>
<rect x="12" y="8" width="1" height="1" fill="#1a1a1a"/>
<rect x="13" y="8" width="1" height="1" fill="#1a1a1a"/>
<rect x="18" y="8" width="1" height="1" fill="#7e7e7e"/>
<rect x="19" y="8" width="1" height="1" fill="#7e7e7e"/>
<rect x="20" y="8" width="1" height="1" fill="#7e7e7e"/>
<rect x="21" y="8" width="1" height="1" fill="#7e7e7e"/>
<rect x="10" y="9" width="1" height="1" fill="#1a1a1a"/>
<rect x="11" y="9" width="1" height="1" fill="#1a1a1a"/>
<rect x="12" y="9" width="1" height="1" fill="#1a1a1a"/>
<rect x="13" y="9" width="1" height="1" fill="#1a1a1a"/>
<rect x="18" y="9" width="1" height="1" fill="#7e7e7e"/>
<rect x="19" y="9" width="1" height="1" fill="#7e7e7e"/>
<rect x="20" y="9" width="1" height="1" fill="#7e7e7e"/>
<rect x="21" y="9" width="1" height="1" fill="#7e7e7e"/>
<rect x="10" y="10" width="1" height="1" fill="#1a1a1a"/>
<rect x="11" y="10" width="1" height="1" fill="#1a1a1a"/>
<rect x="12" y="10" width="1" height="1" fill="#1a1a1a"/>
<rect x="13" y="10" width="1" height="1" fill="#1a1a1a"/>
<rect x="18" y="10" width="1" height="1" fill="#7e7e7e"/>
<rect x="19" y="10" width="1" height="1" fill="#7e7e7e"/>
<rect x="20" y="10" width="1" height="1" fill="#7e7e7e"/>
<rect x="21" y="10" width="1" height="1" fill="#7e7e7e"/>
<rect x="10" y="11" width="1" height="1" fill="#1a1a1a"/>
<rect x="11" y="11" width="1" height="1" fill="#1a1a1a"/>
<rect x="12" y="11" width="1" height="1" fill="#1a1a1a"/>
<rect x="13" y="11" width="1" height="1" fill="#1a1a1a"/>
<rect x="18" y="11" width="1" height="1" fill="#7e7e7e"/>
<rect x="19" y="11" width="1" height="1" fill="#7e7e7e"/>
<rect x="20" y="11" width="1" height="1" fill="#7e7e7e"/>
<rect x="21" y="11" width="1" height="1" fill="#7e7e7e"/>
<rect x="10" y="12" width="1" height="1" fill="#1a1a1a"/>
<rect x="11" y="12" width="1" height="1" fill="#1a1a1a"/>
<rect x="12" y="12" width="1" height="1" fill="#1a1a1a"/>
<rect x="13" y="12" width="1" height="1" fill="#1a1a1a"/>
<rect x="18" y="12" width="1" height="1" fill="#7e7e7e"/>
<rect x="19" y="12" width="1" height="1" fill="#7e7e7e"/>
<rect x="20" y="12" width="1" height="1" fill="#7e7e7e"/>
<rect x="21" y="12" width="1" height="1" fill="#7e7e7e"/>
<rect x="10" y="13" width="1" height="1" fill="#1a1a1a"/>
<rect x="11" y="13" width="1" height="1" fill="#1a1a1a"/>
<rect x="12" y="13" width="1" height="1" fill="#1a1a1a"/>
<rect x="13" y="13" width="1" height="1" fill="#1a1a1a"/>
<rect x="18" y="13" width="1" height="1" fill="#7e7e7e"/>
<rect x="19" y="13" width="1" height="1" fill="#7e7e7e"/>
<rect x="20" y="13" width="1" height="1" fill="#7e7e7e"/>
<rect x="21" y="13" width="1" height="1" fill="#7e7e7e"/>
<rect x="10" y="14" width="1" height="1" fill="#1a1a1a"/>
<rect x="11" y="14" width="1" height="1" fill="#1a1a1a"/>
<rect x="12" y="14" width="1" height="1" fill="#1a1a1a"/>
<rect x="13" y="14" width="1" height="1" fill="#1a1a1a"/>
<rect x="14" y="14" width="1" height="1" fill="#4c4c4c"/>
<rect x="15" y="14" width="1" height="1" fill="#4c4c4c"/>
<rect x="16" y="14" width="1" height="1" fill="#4c4c4c"/>
<rect x="17" y="14" width="1" height="1" fill="#4c4c4c"/>
<rect x="18" y="14" width="1" height="1" fill="#7e7e7e"/>
<rect x="19" y="14" width="1" height="1" fill="#7e7e7e"/>
<rect x="20" y="14" width="1" height="1" fill="#7e7e7e"/>
<rect x="21" y="14" width="1" height="1" fill="#7e7e7e"/>
<rect x="10" y="15" width="1" height="1" fill="#1a1a1a"/>
<rect x="11" y="15" width="1" height="1" fill="#1a1a1a"/>
<rect x="12" y="15" width="1" height="1" fill="#1a1a1a"/>
<rect x="13" y="15" width="1" height="1" fill="#1a1a1a"/>
<rect x="14" y="15" width="1" height="1" fill="#4c4c4c"/>
<rect x="15" y="15" width="1" height="1" fill="#4c4c4c"/>
<rect x="16" y="15" width="1" height="1" fill="#4c4c4c"/>
<rect x="17" y="15" width="1" height="1" fill="#4c4c4c"/>
<rect x="18" y="15" width="1" height="1" fill="#7e7e7e"/>
<rect x="19" y="15" width="1" height="1" fill="#7e7e7e"/>
<rect x="20" y="15" width="1" height="1" fill="#7e7e7e"/>
<rect x="21" y="15" width="1" height="1" fill="#7e7e7e"/>
<rect x="10" y="16" width="1" height="1" fill="#1a1a1a"/>
<rect x="11" y="16" width="1" height="1" fill="#1a1a1a"/>
<rect x="12" y="16" width="1" height="1" fill="#1a1a1a"/>
<rect x="13" y="16" width="1" height="1" fill="#1a1a1a"/>
<rect x="14" y="16" width="1" height="1" fill="#4c4c4c"/>
<rect x="15" y="16" width="1" height="1" fill="#4c4c4c"/>
<rect x="16" y="16" width="1" height="1" fill="#4c4c4c"/>
<rect x="17" y="16" width="1" height="1" fill="#4c4c4c"/>
<rect x="18" y="16" width="1" height="1" fill="#7e7e7e"/>
<rect x="19" y="16" width="1" height="1" fill="#7e7e7e"/>
<rect x="20" y="16" width="1" height="1" fill="#7e7e7e"/>
<rect x="21" y="16" width="1" height="1" fill="#7e7e7e"/>
<rect x="10" y="17" width="1" height="1" fill="#1a1a1a"/>
<rect x="11" y="17" width="1" height="1" fill="#1a1a1a"/>
<rect x="12" y="17" width="1" height="1" fill="#1a1a1a"/>
<rect x="13" y="17" width="1" height="1" fill="#1a1a1a"/>
<rect x="14" y="17" width="1" height="1" fill="#4c4c4c"/>
<rect x="15" y="17" width="1" height="1" fill="#4c4c4c"/>
<rect x="16" y="17" width="1" height="1" fill="#4c4c4c"/>
<rect x="17" y="17" width="1" height="1" fill="#4c4c4c"/>
<rect x="18" y="17" width="1" height="1" fill="#7e7e7e"/>
<rect x="19" y="17" width="1" height="1" fill="#7e7e7e"/>
<rect x="20" y="17" width="1" height="1" fill="#7e7e7e"/>
<rect x="21" y="17" width="1" height="1" fill="#7e7e7e"/>
<rect x="10" y="18" width="1" height="1" fill="#1a1a1a"/>
<rect x="11" y="18" width="1" height="1" fill="#1a1a1a"/>
<rect x="12" y="18" width="1" height="1" fill="#1a1a1a"/>
<rect x="13" y="18" width="1" height="1" fill="#1a1a1a"/>
<rect x="10" y="19" width="1" height="1" fill="#1a1a1a"/>
<rect x="11" y="19" width="1" height="1" fill="#1a1a1a"/>
<rect x="12" y="19" width="1" height="1" fill="#1a1a1a"/>
<rect x="13" y="19" width="1" height="1" fill="#1a1a1a"/>
<rect x="10" y="20" width="1" height="1" fill="#1a1a1a"/>
<rect x="11" y="20" width="1" height="1" fill="#1a1a1a"/>
<rect x="12" y="20" width="1" height="1" fill="#1a1a1a"/>
<rect x="13" y="20" width="1" height="1" fill="#1a1a1a"/>
<rect x="10" y="21" width="1" height="1" fill="#1a1a1a"/>
<rect x="11" y="21" width="1" height="1" fill="#1a1a1a"/>
<rect x="12" y="21" width="1" height="1" fill="#1a1a1a"/>
<rect x="13" y="21" width="1" height="1" fill="#1a1a1a"/>
<rect x="10" y="22" width="1" height="1" fill="#1a1a1a"/>
<rect x="11" y="22" width="1" height="1" fill="#1a1a1a"/>
<rect x="12" y="22" width="1" height="1" fill="#1a1a1a"/>
<rect x="13" y="22" width="1" height="1" fill="#1a1a1a"/>
<rect x="10" y="23" width="1" height="1" fill="#1a1a1a"/>
<rect x="11" y="23" width="1" height="1" fill="#1a1a1a"/>
<rect x="12" y="23" width="1" height="1" fill="#1a1a1a"/>
<rect x="13" y="23" width="1" height="1" fill="#1a1a1a"/>
<rect x="10" y="24" width="1" height="1" fill="#1a1a1a"/>
<rect x="11" y="24" width="1" height="1" fill="#1a1a1a"/>
<rect x="12" y="24" width="1" height="1" fill="#1a1a1a"/>
<rect x="13" y="24" width="1" height="1" fill="#1a1a1a"/>
<rect x="10" y="25" width="1" height="1" fill="#1a1a1a"/>
<rect x="11" y="25" width="1" height="1" fill="#1a1a1a"/>
<rect x="12" y="25" width="1" height="1" fill="#1a1a1a"/>
<rect x="13" y="25" width="1" height="1" fill="#1a1a1a"/>
<rect x="10" y="26" width="1" height="1" fill="#1a1a1a"/>
<rect x="11" y="26" width="1" height="1" fill="#1a1a1a"/>
<rect x="12" y="26" width="1" height="1" fill="#1a1a1a"/>
<rect x="13" y="26" width="1" height="1" fill="#1a1a1a"/>
<rect x="10" y="27" width="1" height="1" fill="#1a1a1a"/>
<rect x="11" y="27" width="1" height="1" fill="#1a1a1a"/>
<rect x="12" y="27" width="1" height="1" fill="#1a1a1a"/>
<rect x="13" y="27" width="1" height="1" fill="#1a1a1a"/>
<rect x="10" y="28" width="1" height="1" fill="#1a1a1a"/>
<rect x="11" y="28" width="1" height="1" fill="#1a1a1a"/>
<rect x="12" y="28" width="1" height="1" fill="#1a1a1a"/>
<rect x="13" y="28" width="1" height="1" fill="#1a1a1a"/>
<rect x="10" y="29" width="1" height="1" fill="#1a1a1a"/>
<rect x="11" y="29" width="1" height="1" fill="#1a1a1a"/>
<rect x="12" y="29" width="1" height="1" fill="#1a1a1a"/>
<rect x="13" y="29" width="1" height="1" fill="#1a1a1a"/>
</svg>
